<svg width="37" height="33" viewBox="0 0 37 33" fill="none" xmlns="http://www.w3.org/2000/svg">
<path d="M33.5312 0H24.2812C22.3662 0 20.8125 1.55371 20.8125 3.46875V12.7188C20.8125 14.6338 22.3662 16.1875 24.2812 16.1875H30.0625V20.8125C30.0625 23.3635 27.9885 25.4375 25.4375 25.4375H24.8594C23.8982 25.4375 23.125 26.2107 23.125 27.1719V30.6406C23.125 31.6018 23.8982 32.375 24.8594 32.375H25.4375C31.8258 32.375 37 27.2008 37 20.8125V3.46875C37 1.55371 35.4463 0 33.5312 0ZM12.7188 0H3.46875C1.55371 0 0 1.55371 0 3.46875V12.7188C0 14.6338 1.55371 16.1875 3.46875 16.1875H9.25V20.8125C9.25 23.3635 7.17598 25.4375 4.625 25.4375H4.04688C3.08574 25.4375 2.3125 26.2107 2.3125 27.1719V30.6406C2.3125 31.6018 3.08574 32.375 4.04688 32.375H4.625C11.0133 32.375 16.1875 27.2008 16.1875 20.8125V3.46875C16.1875 1.55371 14.6338 0 12.7188 0Z" fill="#FAA524"/>
</svg>
