<svg width="80" height="80" viewBox="0 0 80 80" fill="none" xmlns="http://www.w3.org/2000/svg">
<path d="M77.5 60H10V12.5C10 11.1187 8.88125 10 7.5 10H2.5C1.11875 10 0 11.1187 0 12.5V65C0 67.7609 2.23906 70 5 70H77.5C78.8812 70 80 68.8812 80 67.5V62.5C80 61.1188 78.8812 60 77.5 60ZM72.5 15H54.0531C50.7125 15 49.0391 19.0391 51.4016 21.4016L56.4641 26.4641L45 37.9297L33.5359 26.4656C31.5828 24.5125 28.4172 24.5125 26.4656 26.4656L15.7328 37.1984C14.7563 38.175 14.7563 39.7578 15.7328 40.7344L19.2672 44.2688C20.2437 45.2453 21.8266 45.2453 22.8031 44.2688L30 37.0703L41.4641 48.5344C43.4172 50.4875 46.5828 50.4875 48.5344 48.5344L63.5344 33.5344L68.5969 38.5969C70.9594 40.9594 74.9984 39.2859 74.9984 35.9453V17.5C75 16.1188 73.8812 15 72.5 15Z" fill="#FAA524"/>
</svg>
