<svg width="50" height="50" viewBox="0 0 50 50" fill="none" xmlns="http://www.w3.org/2000/svg">
<g clip-path="url(#clip0_252_67)">
<path d="M25.252 0H24.748C11.0801 0 0 11.1929 0 25C0 38.8071 11.0801 50 24.748 50H25.252C38.9199 50 50 38.8071 50 25C50 11.1929 38.9199 0 25.252 0Z" fill="#FAA524"/>
<path d="M34.1751 11.6941L11.6898 34.1793C10.6883 35.1808 10.6883 36.8045 11.6898 37.806C12.6913 38.8075 14.315 38.8075 15.3164 37.806L37.8017 15.3207C38.8032 14.3193 38.8032 12.6956 37.8017 11.6941C36.8002 10.6926 35.1765 10.6926 34.1751 11.6941Z" fill="#2E153C"/>
<path d="M12.1982 15.3166L34.6835 37.8019C35.685 38.8034 37.3087 38.8034 38.3102 37.8019C39.3116 36.8004 39.3116 35.1767 38.3102 34.1753L15.8249 11.69C14.8234 10.6885 13.1997 10.6885 12.1982 11.69C11.1968 12.6915 11.1968 14.3152 12.1982 15.3166Z" fill="#2E153C"/>
</g>
<defs>
<clipPath id="clip0_252_67">
<rect width="50" height="50" fill="white"/>
</clipPath>
</defs>
</svg>
