<svg width="50" height="50" viewBox="0 0 50 50" fill="none" xmlns="http://www.w3.org/2000/svg">
<rect width="50" height="50" rx="25" fill="#FAA524"/>
<path d="M37.9167 17H12.0833C10.9327 17 10 18.1481 10 19.5644C10 20.9807 10.9327 22.1289 12.0833 22.1289H37.9167C39.0673 22.1289 40 20.9807 40 19.5644C40 18.1481 39.0673 17 37.9167 17Z" fill="#2E153C"/>
<path d="M33.8113 28H11.777C10.7956 28 10 29.1193 10 30.5C10 31.8807 10.7956 33 11.777 33H33.8113C34.7927 33 35.5882 31.8807 35.5882 30.5C35.5882 29.1193 34.7927 28 33.8113 28Z" fill="#2E153C"/>
</svg>
