<svg width="80" height="80" viewBox="0 0 80 80" fill="none" xmlns="http://www.w3.org/2000/svg">
<path d="M50 15C54.1422 15 57.5 11.6422 57.5 7.5C57.5 3.35781 54.1422 0 50 0C45.8578 0 42.5 3.35781 42.5 7.5C42.5 11.6422 45.8578 15 50 15ZM25.2641 49.6047L22.9516 54.9984H12.5C9.73906 54.9984 7.5 57.2375 7.5 59.9984C7.5 62.7594 9.73906 64.9984 12.5 64.9984H24.6016C27.6094 64.9984 30.3172 63.2109 31.4937 60.4531L32.8672 57.2469L31.2 56.2625C28.4937 54.6641 26.5031 52.2984 25.2641 49.6047ZM67.5 34.9984H60.6203L56.5484 26.6781C54.5953 22.6859 51.0094 19.7672 46.8953 18.7188L35.7891 15.4156C31.3672 14.3531 26.7625 15.3297 23.1578 18.0938L16.9594 22.8453C14.7672 24.525 14.3516 27.6625 16.0344 29.8547C17.7172 32.0469 20.8531 32.4578 23.0438 30.7797L29.2453 26.0281C30.4438 25.1078 31.9703 24.7781 33.1938 25.0688L35.4906 25.7516L29.6375 39.4062C27.6656 44.0125 29.4328 49.4078 33.7469 51.9547L47.025 59.7937L42.7328 73.5016C41.9078 76.1359 43.375 78.9406 46.0094 79.7656C46.5078 79.9219 47.0109 79.9969 47.5063 79.9969C49.6328 79.9969 51.6047 78.6266 52.275 76.4891L57.2188 60.6984C58.1422 57.4531 56.7672 53.9672 53.8375 52.2L44.2688 46.5531L49.1609 34.3219L52.3281 40.7953C53.5781 43.3484 56.2219 44.9969 59.0641 44.9969H67.5C70.2609 44.9969 72.5 42.7578 72.5 39.9969C72.5 37.2359 70.2609 34.9984 67.5 34.9984Z" fill="#FAA524"/>
</svg>
