<svg width="80" height="80" viewBox="0 0 80 80" fill="none" xmlns="http://www.w3.org/2000/svg">
<g clip-path="url(#clip0_114_205)">
<path d="M57.7778 31.1109C57.7778 18.8331 44.8472 8.88867 28.8889 8.88867C12.9306 8.88867 0 18.8331 0 31.1109C0 35.8748 1.95833 40.2637 5.27778 43.8887C3.41667 48.0831 0.347222 51.4164 0.305556 51.4581C0 51.7776 -0.0833333 52.2498 0.0972222 52.6665C0.277778 53.0831 0.666667 53.3331 1.11111 53.3331C6.19444 53.3331 10.4028 51.6248 13.4306 49.8609C17.9028 52.0414 23.1944 53.3331 28.8889 53.3331C44.8472 53.3331 57.7778 43.3887 57.7778 31.1109ZM74.7222 61.6664C78.0417 58.0553 80 53.6526 80 48.8887C80 39.597 72.5695 31.6387 62.0417 28.3192C62.1667 29.2359 62.2222 30.1664 62.2222 31.1109C62.2222 45.8192 47.2639 57.7776 28.8889 57.7776C27.3889 57.7776 25.9306 57.6664 24.4861 57.5137C28.8611 65.4998 39.1389 71.1109 51.1111 71.1109C56.8056 71.1109 62.0972 69.8331 66.5694 67.6387C69.5972 69.4026 73.8056 71.1109 78.8889 71.1109C79.3333 71.1109 79.7361 70.847 79.9028 70.4442C80.0833 70.0414 80 69.5692 79.6944 69.2359C79.6528 69.1942 76.5833 65.8748 74.7222 61.6664Z" fill="#FAA524"/>
</g>
<defs>
<clipPath id="clip0_114_205">
<rect width="80" height="80" fill="white"/>
</clipPath>
</defs>
</svg>
